# xmcd
# 
# Track frame offsets:
#     192
#     18316
#     40251
#     60701
#     80478
#     100497
#     116493
#     137762
#     156990
#     174249
#     192155
#     196148
#     214768
#     233871
#     251592
#     269297
#     287028
#     288216
#     289221
#     291904
#     294498
# 
# Disc length: 3953
# 
# Revision: 19
# Processed by: cddbd v1.5.2PL0 Copyright (c) Steve Scherf et al.
# Submitted via: fre:ac v1.0.27
# 
DISCID=410f6f15
DTITLE=Brad Paisley - Time Well Wasted
DYEAR=2005
DGENRE=Country
TTITLE0=The World
TTITLE1=Alcohol
TTITLE2=Waitin' on a Woman
TTITLE3=I'll Take You Back
TTITLE4=She's Everything
TTITLE5=You Need a Man Around Here
TTITLE6=Brad Paisley and Alan Jackson - Out in the Parkin' Lot
TTITLE7=Rainin' You
TTITLE8=Flowers
TTITLE9=Love is Never-Ending
TTITLE10=The Uncloudy Day
TTITLE11=Brad Paisley and Dolly Parton - When I Get Where I'm Going
TTITLE12=Easy Money
TTITLE13=Time Warp
TTITLE14=Time Well Wasted
TTITLE15=Brad Paisley with James Burton and The Kung Pao Buckaroos - Cornography
TTITLE16=Brad Paisley with James Burton and The Kung Pao Buckaroos - Outtake 1
TTITLE17=Brad Paisley with James Burton and The Kung Pao Buckaroos - Outtake 2
TTITLE18=Brad Paisley with James Burton and The Kung Pao Buckaroos - Outtake 3
TTITLE19=Brad Paisley with James Burton and The Kung Pao Buckaroos - Outtake 4
TTITLE20=Brad Paisley and William Shatner - Shatner Says Goodbye
EXTD=
EXTT0=
EXTT1=
EXTT2=
EXTT3=
EXTT4=
EXTT5=
EXTT6=
EXTT7=
EXTT8=
EXTT9=
EXTT10=
EXTT11=
EXTT12=
EXTT13=
EXTT14=
EXTT15=
EXTT16=
EXTT17=
EXTT18=
EXTT19=
EXTT20=
PLAYORDER=
